<mxfile host="app.diagrams.net" modified="2024-04-11T17:05:42.205Z" agent="Mozilla/5.0 (Windows NT 10.0; Win64; x64) AppleWebKit/537.36 (KHTML, like Gecko) Chrome/123.0.0.0 Safari/537.36" etag="XPlaKn4i9bmxDzHiuarO" version="24.2.1" type="device">
  <diagram name="PÃ¡gina-1" id="2Ix_9j6f4EKQOSuo4AWm">
    <mxGraphModel dx="530" dy="270" grid="1" gridSize="10" guides="1" tooltips="1" connect="1" arrows="1" fold="1" page="1" pageScale="1" pageWidth="827" pageHeight="1169" math="0" shadow="0">
      <root>
        <mxCell id="0" />
        <mxCell id="1" parent="0" />
        <mxCell id="w0TmLVatwndg4Lfp2YxD-1" value="Medicamento" style="swimlane;fontStyle=1;align=center;verticalAlign=top;childLayout=stackLayout;horizontal=1;startSize=26;horizontalStack=0;resizeParent=1;resizeParentMax=0;resizeLast=0;collapsible=1;marginBottom=0;whiteSpace=wrap;html=1;" vertex="1" parent="1">
          <mxGeometry x="90" y="220" width="250" height="180" as="geometry">
            <mxRectangle x="170" y="230" width="110" height="30" as="alternateBounds" />
          </mxGeometry>
        </mxCell>
        <mxCell id="w0TmLVatwndg4Lfp2YxD-2" value="&lt;div&gt;- id: inteiro&lt;/div&gt;&lt;div&gt;- nome: String&lt;/div&gt;&lt;div&gt;&lt;div&gt;- quantidade: inteiro&lt;/div&gt;&lt;div&gt;- preco: double&lt;/div&gt;&lt;/div&gt;" style="text;strokeColor=none;fillColor=none;align=left;verticalAlign=top;spacingLeft=4;spacingRight=4;overflow=hidden;rotatable=0;points=[[0,0.5],[1,0.5]];portConstraint=eastwest;whiteSpace=wrap;html=1;" vertex="1" parent="w0TmLVatwndg4Lfp2YxD-1">
          <mxGeometry y="26" width="250" height="74" as="geometry" />
        </mxCell>
        <mxCell id="w0TmLVatwndg4Lfp2YxD-3" value="" style="line;strokeWidth=1;fillColor=none;align=left;verticalAlign=middle;spacingTop=-1;spacingLeft=3;spacingRight=3;rotatable=0;labelPosition=right;points=[];portConstraint=eastwest;strokeColor=inherit;" vertex="1" parent="w0TmLVatwndg4Lfp2YxD-1">
          <mxGeometry y="100" width="250" height="8" as="geometry" />
        </mxCell>
        <mxCell id="w0TmLVatwndg4Lfp2YxD-4" value="+ totalMedicamentos(): inteiro&lt;div&gt;+ mediaMedicamentos(): real&lt;br&gt;&lt;/div&gt;&lt;div&gt;+ precoMedioMedicamentos(): real&lt;br&gt;&lt;/div&gt;&lt;div&gt;+ relatorioMedicamentos(): String&lt;/div&gt;" style="text;strokeColor=none;fillColor=none;align=left;verticalAlign=top;spacingLeft=4;spacingRight=4;overflow=hidden;rotatable=0;points=[[0,0.5],[1,0.5]];portConstraint=eastwest;whiteSpace=wrap;html=1;" vertex="1" parent="w0TmLVatwndg4Lfp2YxD-1">
          <mxGeometry y="108" width="250" height="72" as="geometry" />
        </mxCell>
      </root>
    </mxGraphModel>
  </diagram>
</mxfile>
